<svg version="1.1" xmlns="http://www.w3.org/2000/svg" viewBox="540 330 970 1160" preserveAspectRatio="xMidYMid meet">
<path transform="translate(0,0)" fill="rgb(10,35,62)" d="M 782.955 342.853 C 790.413 345.226 795.319 355.166 800.693 360.802 C 837.11 398.532 871.538 438.132 903.836 479.443 C 919.276 499.201 944.604 536.167 959.274 552.065 C 975.845 551.968 992.207 552.131 1008.84 551.905 C 1021.73 537.467 1036.71 515.372 1051.09 498.832 C 1107.67 433.769 1166.71 401.882 1245.38 371.271 L 1246.11 673.264 C 1260.3 689.193 1272.95 706.427 1283.9 724.738 C 1290.63 736.004 1296.26 747.379 1303.26 758.627 C 1303.2 769.688 1300.9 781.496 1300.92 794.789 C 1300.96 822.109 1307.05 841.172 1321.76 864.367 C 1335.13 885.8 1355.72 897.648 1374.3 913.372 C 1410.59 944.089 1454.78 973.485 1488.54 1006.83 C 1482.4 1027.64 1473.11 1047.38 1461 1065.38 C 1449.29 1082.45 1428.9 1098.49 1411.4 1108.74 C 1359.27 1139.25 1305.42 1144.36 1246.51 1142.97 C 1235.24 1142.7 1189.84 1141.12 1180.7 1142.83 C 1178.95 1144.73 1177.36 1147.46 1177.07 1150.09 C 1172.35 1193.23 1167.7 1238.79 1186.53 1279.36 C 1194.05 1295.55 1198.32 1306.81 1207.72 1322.61 C 1217.82 1346.69 1265.23 1384.37 1287.92 1396.99 C 1293.37 1400.02 1334.75 1418.37 1335.54 1419.44 C 1330.45 1420.23 1319.93 1425.32 1314.79 1427.8 C 1286.23 1441.6 1260.06 1447.58 1229.59 1454.92 C 1162.38 1471.11 1095.43 1473.2 1027.05 1464.84 C 971.377 1458.24 917.088 1442.93 866.167 1419.48 C 738.987 1359.53 637.407 1263.62 573.828 1137.84 C 556.065 1102.7 558.757 1102.51 558.361 1063.59 L 558.09 972.632 L 558.025 842.57 C 558.043 819.419 557.91 795.838 558.372 772.717 C 558.604 756.73 562.056 740.175 563.502 724.421 C 574.606 603.441 641.844 500.326 720.135 411.29 C 739.257 389.544 761.245 362.917 782.955 342.853 z"/>
<path transform="translate(0,0)" fill="rgb(227,82,6)" d="M 990.935 591.82 C 1027.41 592.592 1065.09 601.104 1098.78 614.487 C 1154.6 636.666 1201.15 675.617 1236.45 723.815 C 1246.71 737.82 1256.46 751.844 1263.36 767.957 C 1261.34 782.18 1260.24 795.785 1261.67 810.13 C 1265.63 849.532 1283.58 886.209 1312.27 913.503 C 1322.67 923.399 1338.54 935.282 1350.08 944.545 C 1371.6 961.529 1392.96 978.726 1414.14 996.134 C 1399.26 998.108 1371.37 1003.98 1357.09 1008.44 L 1356.03 1009.21 C 1360.8 1028.18 1368.02 1044.8 1382.19 1058.72 C 1387.17 1062.84 1392.27 1067.31 1397.64 1070.86 C 1341.65 1109.24 1270.91 1104.23 1206.15 1102.94 C 1135.25 1101.52 1078.39 1093.21 1024.33 1149.62 C 1004.04 1170.69 990.403 1197.28 985.134 1226.06 C 981.835 1243.88 982.049 1260.6 983.375 1278.5 L 983.199 1280.56 C 986.885 1289.07 988.364 1300.19 991.21 1309.28 C 999.326 1334.87 1012.19 1358.69 1029.12 1379.51 C 1034.08 1385.66 1039.35 1391.56 1044.91 1397.17 C 1047.79 1400.07 1064.23 1414.76 1065.04 1416.35 C 1058.05 1416.14 1048.98 1414.41 1041.88 1413.27 C 1032.27 1414.87 1011.25 1410.36 1001.09 1408.31 C 924.566 1392.52 852.393 1360.27 789.587 1313.79 C 723.242 1265.31 668.534 1202.66 629.44 1130.39 C 625.906 1123.83 613.607 1100.9 612.644 1094.51 L 614.177 1092.85 C 625.155 1080.15 645.328 1061.26 658.052 1048.6 C 688.083 1019.19 717.909 989.574 747.528 959.751 L 1045.59 662.3 C 1027.23 639.495 1008.88 615.034 990.935 591.82 z"/>
<path transform="translate(0,0)" fill="rgb(249,239,205)" d="M 766.67 1192.84 C 772.196 1160.09 777.563 1136.15 793.282 1106.05 C 816.325 1062.24 851.798 1026.21 895.247 1002.5 C 969.992 961.348 1052.62 961.564 1130.72 990.979 C 1214.14 1022.4 1267.26 1037.23 1356.03 1009.21 C 1360.8 1028.18 1368.02 1044.8 1382.19 1058.72 C 1387.17 1062.84 1392.27 1067.31 1397.64 1070.86 C 1341.65 1109.24 1270.91 1104.23 1206.15 1102.94 C 1135.25 1101.52 1078.39 1093.21 1024.33 1149.62 C 1004.04 1170.69 990.403 1197.28 985.134 1226.06 C 981.835 1243.88 982.049 1260.6 983.375 1278.5 L 983.199 1280.56 C 986.885 1289.07 988.364 1300.19 991.21 1309.28 C 999.326 1334.87 1012.19 1358.69 1029.12 1379.51 C 1034.08 1385.66 1039.35 1391.56 1044.91 1397.17 C 1047.79 1400.07 1064.23 1414.76 1065.04 1416.35 C 1058.05 1416.14 1048.98 1414.41 1041.88 1413.27 C 1029.33 1408.69 1017.84 1406.1 1004.46 1400.78 C 960.167 1383.6 921.861 1353.85 894.249 1315.2 C 862.425 1270.3 847.286 1215.7 851.45 1160.83 C 852.517 1147.18 856.256 1130.43 858.57 1116.46 C 818.589 1133.51 791.015 1156.92 766.67 1192.84 z"/>
<path transform="translate(0,0)" fill="rgb(228,210,169)" d="M 1382.19 1058.72 C 1387.17 1062.84 1392.27 1067.31 1397.64 1070.86 C 1341.65 1109.24 1270.91 1104.23 1206.15 1102.94 C 1135.25 1101.52 1078.39 1093.21 1024.33 1149.62 C 1004.04 1170.69 990.403 1197.28 985.134 1226.06 C 981.835 1243.88 982.049 1260.6 983.375 1278.5 C 971.067 1271.28 957.322 1218.63 955.45 1203.98 C 954.211 1194.17 954.059 1184.27 954.997 1174.43 C 957.858 1140.9 974.219 1109.97 1000.33 1088.74 C 1091.3 1014.11 1202.52 1099.24 1302.47 1085.78 C 1325.1 1082.73 1364.23 1073.73 1382.19 1058.72 z"/>
<path transform="translate(0,0)" fill="rgb(247,120,20)" d="M 990.935 591.82 C 1027.41 592.592 1065.09 601.104 1098.78 614.487 C 1154.6 636.666 1201.15 675.617 1236.45 723.815 C 1246.71 737.82 1256.46 751.844 1263.36 767.957 C 1261.34 782.18 1260.24 795.785 1261.67 810.13 C 1265.63 849.532 1283.58 886.209 1312.27 913.503 C 1322.67 923.399 1338.54 935.282 1350.08 944.545 C 1371.6 961.529 1392.96 978.726 1414.14 996.134 C 1399.26 998.108 1371.37 1003.98 1357.09 1008.44 C 1345.75 1007.18 1332.66 998.289 1322.8 993.368 C 1259.93 962.005 1210.68 912.801 1180.74 849.03 C 1167.4 820.607 1137.36 798.226 1105.93 794.042 C 1009.84 782.483 941.925 860.553 901.896 937.916 C 870.624 1000.59 834.35 1001.75 774.364 1021.97 C 750.26 1030.24 726.485 1039.45 703.093 1049.56 C 690.84 1054.84 620.567 1092.68 614.177 1092.85 C 625.155 1080.15 645.328 1061.26 658.052 1048.6 C 688.083 1019.19 717.909 989.574 747.528 959.751 L 1045.59 662.3 C 1027.23 639.495 1008.88 615.034 990.935 591.82 z"/>
<path transform="translate(0,0)" fill="rgb(10,35,62)" d="M 1076.75 834.365 C 1121.39 830.225 1136.74 847.734 1161.46 882.249 C 1169.33 893.242 1177.71 903.856 1185.26 915.306 C 1170.02 909.459 1154.68 903.882 1139.24 898.577 C 1126.28 893.64 1101.94 903.104 1083.96 896.863 C 1062.38 889.376 1062.99 880.817 1047.1 868.367 C 1042.41 864.688 1023.02 856.66 1016.71 853.848 C 1038.83 842.333 1051.54 837.776 1076.75 834.365 z"/>
<path transform="translate(0,0)" fill="rgb(249,239,205)" d="M 783.378 420.002 C 789.636 425.386 808.651 448.28 814.343 455.053 C 844.926 491.847 874.54 529.434 903.156 567.776 C 925.858 597.645 951.01 628.137 972.97 658.108 C 955.495 677.028 933.588 697.316 915.045 715.869 C 892.875 685.872 869.646 656.759 846.946 627.174 C 825.935 599.789 806.308 571.994 782.95 546.508 C 764.683 571.725 750.645 588.856 735.595 616.516 C 749.787 636.062 766.93 657.111 781.897 676.405 C 806.8 708.86 831.908 741.157 857.221 773.293 C 839.602 792.415 818.072 812.71 799.369 831.355 C 796.719 827.54 793.631 823.65 790.8 819.933 C 764.356 785.774 730.584 738.891 702.725 706.727 C 691.557 754.353 693.022 792.34 693.204 840.873 C 693.193 872.792 693.529 904.711 694.212 936.624 C 669.345 962.63 638.028 991.989 611.987 1017.64 L 611.852 853.788 C 611.797 824.424 611.405 795.93 612.693 766.793 C 616.417 682.487 642.427 607.159 689.948 537.423 C 718.657 495.294 750.379 458.961 783.378 420.002 z"/>
<path transform="translate(0,0)" fill="rgb(228,210,169)" d="M 983.199 1280.56 C 987.723 1274.77 992.37 1262.04 995.899 1254.97 C 1007.75 1231.16 1026.01 1211.13 1048.61 1197.11 C 1066.2 1274.89 1100.72 1316.36 1167.83 1357.68 C 1186.59 1369.24 1201.98 1388.52 1217.2 1404.71 C 1172.31 1414.3 1132.35 1419.78 1086.16 1417.85 C 1082.41 1417.7 1067.87 1417.25 1065.04 1416.35 C 1064.23 1414.76 1047.79 1400.07 1044.91 1397.17 C 1039.35 1391.56 1034.08 1385.66 1029.12 1379.51 C 1012.19 1358.69 999.326 1334.87 991.21 1309.28 C 988.364 1300.19 986.885 1289.07 983.199 1280.56 z"/>
<path transform="translate(0,0)" fill="rgb(227,82,6)" d="M 1205.97 444.123 C 1207.85 447.628 1207.15 611.527 1207.19 632.922 C 1186.78 615.497 1168.52 604.33 1145.46 591.191 C 1133.48 584.222 1116.44 578.006 1103.31 572.847 C 1123.93 525.251 1164.05 474.358 1205.97 444.123 z"/>
</svg>
